<svg id="Capa_1" data-name="Capa 1" xmlns="http://www.w3.org/2000/svg" xmlns:xlink="http://www.w3.org/1999/xlink" viewBox="0 0 375 593"><defs><style>.cls-1{fill:#c4c4c4;}.cls-2{mask:url(#mask);}.cls-3{opacity:0.1;}.cls-4{fill:#89cace;opacity:0.6;}.cls-4,.cls-6,.cls-7{isolation:isolate;}.cls-5{opacity:0.2;}.cls-6,.cls-7{fill:#6ec5ce;}.cls-6{opacity:0.5;}.cls-7{opacity:0.8;}.cls-8{fill:#d6eff0;}</style><mask id="mask" x="-92.04" y="0" width="467.73" height="658.79" maskUnits="userSpaceOnUse"><g id="mask0"><rect class="cls-1" x="-86" width="461" height="462.1"/></g></mask></defs><g class="cls-2"><g class="cls-3"><path class="cls-4" d="M375.69,8.57C347.56,5,318.17,15.93,300.93,36.13c-6.58,7.75-11.51,16.76-19.27,23.57s-19.51,11.12-29.47,6.89S235.9,50.54,225.16,51C219.91,70,207.14,93.61,186,89.7,173.29,87.35,164,75,151.11,74.5c-19.75-.7-27.11,25.14-45.45,31.41-17.94,6.18-36.12-8.38-50.15-20.83A444.94,444.94,0,0,0-23.87,28.93c-20.53-11.36-46.39-21.3-67-11L-92,510.7l466.55-1.1Z"/></g><g class="cls-5"><path class="cls-6" d="M375.69,78.65c-28.13-3.52-57.52,7.37-74.76,27.57-6.58,7.75-11.51,16.76-19.27,23.57s-19.51,11.12-29.47,6.89-16.29-16.05-27-15.58c-5.25,19-18,42.6-39.18,38.69-12.69-2.35-21.94-14.73-34.87-15.2-19.75-.7-27.11,25.14-45.45,31.41-17.94,6.18-36.12-8.38-50.15-20.84A445.39,445.39,0,0,0-23.87,99c-20.53-11.36-46.39-21.31-67-11L-92,580.79l466.55-1.1Z"/></g><g class="cls-5"><path class="cls-7" d="M375.69,156.65c-28.13-3.52-57.52,7.36-74.76,27.57-6.58,7.75-11.51,16.76-19.27,23.57s-19.51,11.12-29.47,6.89-16.29-16.05-27-15.58c-5.25,19-18,42.6-39.18,38.68-12.69-2.35-21.94-14.72-34.87-15.19-19.75-.7-27.11,25.14-45.45,31.4-17.94,6.19-36.12-8.37-50.15-20.83A445.44,445.44,0,0,0-23.87,177c-20.53-11.35-46.39-21.3-67-11L-92,658.79l466.55-1.1Z"/></g></g><path class="cls-8" d="M-158,664.84c49.74,6.22,101.7-13,132.18-48.66,11.64-13.69,20.37-29.59,34.09-41.62s34.5-19.63,52.1-12.17,28.82,28.35,47.8,27.52c9.29-33.46,31.87-75.21,69.28-68.3,22.45,4.15,38.8,26,61.66,26.82,34.92,1.24,47.94-44.38,80.36-55.44,31.73-10.92,63.88,14.79,88.68,36.78,42.54,37.74,92.35,60.14,202.48,60.14,36.3,20,36.93-42,73.37-60.14L667,459l-825,1.94Z"/></svg>