<svg width="170" height="60" viewBox="0 0 170 60" fill="none" xmlns="http://www.w3.org/2000/svg">
<path d="M119.982 43.8848C120.027 43.8848 120.074 43.8959 120.122 43.9183C120.17 43.9406 120.208 43.9723 120.234 44.0133L121.653 46.1755L121.413 46.1644L122.86 44.0133C122.919 43.9276 122.996 43.8848 123.089 43.8848C123.163 43.8848 123.228 43.9127 123.284 43.9686C123.344 44.0207 123.374 44.0878 123.374 44.1697V47.5165C123.374 47.5984 123.348 47.6673 123.295 47.7232C123.243 47.7753 123.174 47.8014 123.089 47.8014C122.999 47.8014 122.927 47.7753 122.871 47.7232C122.819 47.6673 122.793 47.5984 122.793 47.5165V44.6837L122.971 44.7228L121.742 46.5946C121.716 46.6281 121.683 46.6579 121.642 46.684C121.601 46.7063 121.558 46.7156 121.513 46.7119C121.472 46.7156 121.429 46.7063 121.385 46.684C121.344 46.6579 121.31 46.6281 121.284 46.5946L120.1 44.7508L120.234 44.5273V47.5165C120.234 47.5984 120.208 47.6673 120.156 47.7232C120.107 47.7753 120.042 47.8014 119.96 47.8014C119.882 47.8014 119.817 47.7753 119.765 47.7232C119.716 47.6673 119.692 47.5984 119.692 47.5165V44.1697C119.692 44.0915 119.72 44.0244 119.776 43.9686C119.835 43.9127 119.904 43.8848 119.982 43.8848Z" fill="#6EC3CD"/>
<path d="M127.062 43.8848C127.144 43.8848 127.21 43.9127 127.258 43.9686C127.306 44.0207 127.331 44.0878 127.331 44.1697V46.2873C127.331 46.5853 127.265 46.8516 127.135 47.0863C127.005 47.3209 126.826 47.5053 126.599 47.6394C126.371 47.7698 126.109 47.8349 125.811 47.8349C125.517 47.8349 125.254 47.7698 125.023 47.6394C124.796 47.5053 124.615 47.3209 124.481 47.0863C124.351 46.8516 124.286 46.5853 124.286 46.2873V44.1697C124.286 44.0878 124.314 44.0207 124.37 43.9686C124.425 43.9127 124.498 43.8848 124.587 43.8848C124.658 43.8848 124.722 43.9127 124.777 43.9686C124.837 44.0207 124.867 44.0878 124.867 44.1697V46.2873C124.867 46.4847 124.91 46.6579 124.995 46.8069C125.085 46.9522 125.202 47.0676 125.347 47.1533C125.492 47.2352 125.647 47.2762 125.811 47.2762C125.99 47.2762 126.154 47.2352 126.303 47.1533C126.452 47.0676 126.571 46.9522 126.66 46.8069C126.753 46.6579 126.8 46.4847 126.8 46.2873V44.1697C126.8 44.0878 126.822 44.0207 126.867 43.9686C126.915 43.9127 126.98 43.8848 127.062 43.8848Z" fill="#6EC3CD"/>
<path d="M130.403 47.2539C130.482 47.2539 130.547 47.2799 130.599 47.3321C130.655 47.3842 130.683 47.4494 130.683 47.5276C130.683 47.6059 130.655 47.6711 130.599 47.7232C130.547 47.7753 130.482 47.8014 130.403 47.8014H128.526C128.444 47.8014 128.375 47.7753 128.319 47.7232C128.267 47.6673 128.241 47.5984 128.241 47.5165V44.1753C128.241 44.0933 128.269 44.0263 128.325 43.9741C128.381 43.9183 128.454 43.8903 128.543 43.8903C128.617 43.8903 128.683 43.9183 128.738 43.9741C128.798 44.0263 128.828 44.0933 128.828 44.1753V47.3489L128.711 47.2539H130.403Z" fill="#6EC3CD"/>
<path d="M132.118 47.8014C132.028 47.8014 131.955 47.7753 131.9 47.7232C131.847 47.6673 131.821 47.5984 131.821 47.5165V44.1697H132.419V47.5165C132.419 47.5984 132.389 47.6673 132.33 47.7232C132.274 47.7753 132.203 47.8014 132.118 47.8014ZM130.849 44.4267C130.771 44.4267 130.704 44.4025 130.648 44.3541C130.592 44.3019 130.564 44.2349 130.564 44.1529C130.564 44.0747 130.592 44.0114 130.648 43.963C130.704 43.9146 130.771 43.8903 130.849 43.8903H133.391C133.47 43.8903 133.535 43.9164 133.587 43.9686C133.643 44.017 133.671 44.0803 133.671 44.1585C133.671 44.2405 133.643 44.3057 133.587 44.3541C133.535 44.4025 133.47 44.4267 133.391 44.4267H130.849Z" fill="#6EC3CD"/>
<path d="M134.889 47.5165C134.886 47.5984 134.854 47.6673 134.794 47.7232C134.739 47.7753 134.671 47.8014 134.593 47.8014C134.508 47.8014 134.437 47.7753 134.381 47.7232C134.329 47.6673 134.303 47.5984 134.303 47.5165V44.1753C134.303 44.0933 134.331 44.0263 134.387 43.9741C134.442 43.9183 134.515 43.8903 134.604 43.8903C134.679 43.8903 134.744 43.9183 134.8 43.9741C134.86 44.0263 134.889 44.0933 134.889 44.1753V47.5165Z" fill="#6EC3CD"/>
<path d="M136.083 43.8848C136.127 43.8848 136.174 43.8959 136.222 43.9183C136.271 43.9406 136.308 43.9723 136.334 44.0133L137.753 46.1755L137.513 46.1644L138.96 44.0133C139.02 43.9276 139.096 43.8848 139.189 43.8848C139.263 43.8848 139.329 43.9127 139.385 43.9686C139.444 44.0207 139.474 44.0878 139.474 44.1697V47.5165C139.474 47.5984 139.448 47.6673 139.396 47.7232C139.344 47.7753 139.275 47.8014 139.189 47.8014C139.1 47.8014 139.027 47.7753 138.971 47.7232C138.919 47.6673 138.893 47.5984 138.893 47.5165V44.6837L139.072 44.7228L137.843 46.5946C137.816 46.6281 137.783 46.6579 137.742 46.684C137.701 46.7063 137.658 46.7156 137.614 46.7119C137.573 46.7156 137.53 46.7063 137.485 46.684C137.444 46.6579 137.411 46.6281 137.384 46.5946L136.2 44.7508L136.334 44.5273V47.5165C136.334 47.5984 136.308 47.6673 136.256 47.7232C136.207 47.7753 136.142 47.8014 136.06 47.8014C135.982 47.8014 135.917 47.7753 135.865 47.7232C135.816 47.6673 135.792 47.5984 135.792 47.5165V44.1697C135.792 44.0915 135.82 44.0244 135.876 43.9686C135.936 43.9127 136.004 43.8848 136.083 43.8848Z" fill="#6EC3CD"/>
<path d="M140.671 43.8903H142.604C142.682 43.8903 142.747 43.9164 142.8 43.9686C142.855 44.0207 142.883 44.0859 142.883 44.1641C142.883 44.2423 142.855 44.3057 142.8 44.3541C142.747 44.4025 142.682 44.4267 142.604 44.4267H140.917L140.973 44.3317V45.5833L140.922 45.5274H142.353C142.431 45.5274 142.496 45.5535 142.548 45.6056C142.604 45.6578 142.632 45.7248 142.632 45.8068C142.632 45.885 142.604 45.9483 142.548 45.9967C142.496 46.0452 142.431 46.0694 142.353 46.0694H140.934L140.973 46.0191V47.3097L140.934 47.265H142.604C142.682 47.265 142.747 47.293 142.8 47.3489C142.855 47.401 142.883 47.4625 142.883 47.5332C142.883 47.6115 142.855 47.6766 142.8 47.7288C142.747 47.7772 142.682 47.8014 142.604 47.8014H140.671C140.593 47.8014 140.526 47.7753 140.47 47.7232C140.414 47.6673 140.386 47.5984 140.386 47.5165V44.1753C140.386 44.0933 140.414 44.0263 140.47 43.9741C140.526 43.9183 140.593 43.8903 140.671 43.8903Z" fill="#6EC3CD"/>
<path d="M145.226 43.8903C145.498 43.8903 145.738 43.9425 145.947 44.0468C146.155 44.1474 146.328 44.2889 146.466 44.4714C146.608 44.6502 146.714 44.8588 146.785 45.0972C146.855 45.3319 146.891 45.5814 146.891 45.8459C146.891 46.2072 146.827 46.5368 146.701 46.8348C146.574 47.1291 146.388 47.3638 146.142 47.5388C145.896 47.7139 145.591 47.8014 145.226 47.8014H143.863C143.784 47.8014 143.717 47.7753 143.662 47.7232C143.606 47.6673 143.578 47.5984 143.578 47.5165V44.1753C143.578 44.0933 143.606 44.0263 143.662 43.9741C143.717 43.9183 143.784 43.8903 143.863 43.8903H145.226ZM145.17 47.265C145.434 47.265 145.649 47.1999 145.812 47.0695C145.976 46.9391 146.096 46.7678 146.17 46.5555C146.248 46.3394 146.287 46.1029 146.287 45.8459C146.287 45.6559 146.265 45.4771 146.22 45.3095C146.179 45.1382 146.112 44.9873 146.019 44.8569C145.93 44.7228 145.814 44.6185 145.673 44.544C145.535 44.4658 145.367 44.4267 145.17 44.4267H144.114L144.164 44.3764V47.3209L144.131 47.265H145.17Z" fill="#6EC3CD"/>
<path d="M148.164 47.5165C148.16 47.5984 148.128 47.6673 148.069 47.7232C148.013 47.7753 147.946 47.8014 147.867 47.8014C147.782 47.8014 147.711 47.7753 147.655 47.7232C147.603 47.6673 147.577 47.5984 147.577 47.5165V44.1753C147.577 44.0933 147.605 44.0263 147.661 43.9741C147.717 43.9183 147.789 43.8903 147.879 43.8903C147.953 43.8903 148.018 43.9183 148.074 43.9741C148.134 44.0263 148.164 44.0933 148.164 44.1753V47.5165Z" fill="#6EC3CD"/>
<path d="M150.463 44.6167L149.206 47.6338C149.184 47.6934 149.15 47.74 149.105 47.7735C149.061 47.807 149.01 47.8238 148.955 47.8238C148.873 47.8238 148.811 47.8014 148.77 47.7567C148.729 47.7083 148.707 47.6487 148.703 47.5779C148.703 47.5519 148.709 47.5221 148.72 47.4885L150.139 44.058C150.165 43.9946 150.202 43.9462 150.251 43.9127C150.303 43.8792 150.359 43.8643 150.418 43.868C150.474 43.868 150.526 43.8848 150.575 43.9183C150.623 43.9518 150.659 43.9984 150.681 44.058L152.083 47.4383C152.098 47.4755 152.106 47.5127 152.106 47.55C152.106 47.6319 152.078 47.699 152.022 47.7511C151.97 47.7996 151.91 47.8238 151.843 47.8238C151.787 47.8238 151.735 47.807 151.687 47.7735C151.642 47.7362 151.608 47.6897 151.586 47.6338L150.318 44.6334L150.463 44.6167ZM149.429 46.8404L149.681 46.304H151.262L151.357 46.8404H149.429Z" fill="#6EC3CD"/>
<path d="M94.7062 7.15044C95.1856 7.0306 95.585 6.99066 95.8646 7.03061C96.2241 7.07055 96.5836 7.23034 96.9431 7.50997C97.3425 7.78959 97.5822 8.10917 97.7819 8.46869C98.3012 9.62714 97.5023 13.3821 95.4252 19.8136C94.3467 23.1291 93.468 26.0053 92.749 28.4421C92.03 30.8788 91.6705 32.1571 91.7105 32.2769C91.7105 32.3169 91.8303 32.237 91.9901 31.9973C92.1898 31.7177 92.4694 31.3582 92.7889 30.8788C93.5878 29.5606 94.9459 27.8029 96.7833 25.5259C98.6207 23.2889 100.099 21.5712 101.257 20.4527C102.455 19.2943 103.414 18.4154 104.133 17.7763C104.892 17.1371 105.531 16.6977 106.13 16.3781C106.729 16.0985 107.249 15.9787 107.648 16.0186C108.047 16.0985 108.487 16.2982 108.926 16.6178C109.485 17.0173 109.845 17.4967 109.965 18.016C110.085 18.5353 110.045 19.3342 109.845 20.4527C109.645 21.731 109.286 23.249 108.766 25.0466C108.207 27.0839 107.568 29.6005 106.929 32.6365C106.29 35.6724 105.93 37.5499 105.89 38.3089C105.89 38.7883 105.89 39.1478 105.93 39.3475C105.97 39.5473 106.09 39.6671 106.21 39.747C106.689 39.9467 106.809 40.2263 106.609 40.5859C106.37 40.9454 105.97 41.1851 105.331 41.225C105.171 41.265 104.972 41.265 104.812 41.225C104.492 41.1851 104.253 41.1052 104.053 41.0253C103.893 40.9454 103.694 40.7457 103.534 40.506C103.294 40.1864 102.975 39.5473 102.815 38.6285C102.655 37.6698 102.575 37.0306 102.575 35.4727C102.575 34.5539 102.815 32.5965 103.414 29.6405C104.013 26.6445 104.572 24.2477 105.171 22.3702C105.331 21.8508 105.451 21.3715 105.571 20.9321C105.691 20.4927 105.771 20.1331 105.851 19.8935C105.93 19.6538 105.93 19.494 105.89 19.494C105.771 19.494 105.251 19.9334 104.253 20.7723C103.254 21.6511 102.335 22.49 101.537 23.3289C99.4595 25.4461 97.5822 27.763 95.8247 30.2796C94.0671 32.7963 92.03 36.1917 89.7133 40.466C88.9544 41.8642 88.3951 42.2237 88.1954 42.4234C87.9158 42.6631 87.5563 42.7829 87.077 42.743C86.6376 42.703 86.2382 42.5433 85.9186 42.2636L85.7589 42.1438C85.5592 41.9441 85.4393 41.6644 85.4793 41.3848L85.9186 39.9467C86.3181 38.229 87.2368 34.9134 88.6748 30.0399C90.1127 25.1664 91.3909 21.0919 92.5093 17.7763C92.9088 16.5779 93.2683 15.5393 93.5479 14.7004C93.8275 13.8615 94.0671 13.1025 94.2669 12.4234C94.4666 11.7443 94.6264 11.225 94.7462 10.8255C94.866 10.4261 94.9459 10.1065 94.9858 9.82688C95.0258 9.54725 95.0657 9.38746 95.0657 9.26762C95.0657 9.18773 95.0258 9.10784 94.9858 9.10784C94.7462 9.06789 94.0272 9.66709 92.7889 10.8655C91.5507 12.0639 90.4323 13.2623 89.4337 14.5006C88.1155 16.0985 86.8773 17.8162 85.679 19.6138C84.4807 21.4114 83.0427 23.8482 81.2852 26.8442C78.2894 32.0772 75.6931 37.3102 73.4962 42.4634C72.6174 44.5406 71.9783 45.8189 71.6188 46.3781C71.1795 46.9773 70.6602 47.3369 70.101 47.4168C69.5018 47.4967 68.9826 47.3369 68.5432 46.8975C68.1038 46.458 67.8242 45.8588 67.7443 45.0998C67.7044 44.4208 67.7842 42.8229 68.0638 40.3062C68.5831 35.4727 69.8613 29.3209 72.0183 21.8908C73.0967 18.1757 73.7358 15.4993 74.0154 13.8216L74.2551 12.4234C74.295 12.0639 73.8956 11.8242 73.656 12.0639L73.616 12.1038C72.1381 13.6218 70.6202 15.8189 69.0624 18.7749C67.5046 21.731 66.4661 24.3275 65.9069 26.6045C65.5873 27.9228 65.3477 28.6418 65.1879 28.8016C64.9882 28.9614 64.6686 29.0013 64.2692 28.9214C63.8698 28.8415 63.5502 28.6817 63.3505 28.4421C63.2307 28.2423 63.1508 28.0026 63.1108 27.723C63.1108 27.4034 63.1508 26.8841 63.2307 26.1251C63.4304 24.6072 63.9097 22.8096 64.6686 20.7723C65.4675 18.735 66.3463 16.8575 67.3848 15.0998C68.3834 13.3422 69.5018 11.7443 70.6602 10.3861C71.8185 9.02794 72.8171 8.14911 73.6959 7.82954C74.7744 7.43007 75.8529 7.58986 76.9713 8.26895C77.8101 8.78826 78.3294 9.5872 78.4891 10.7457C78.6888 11.9041 78.569 13.5419 78.1696 15.6591C77.7701 17.7763 77.0112 20.6524 75.9327 24.3275C74.1752 30.1997 72.897 34.9933 72.0982 38.7084C72.0183 39.1478 72.5775 39.3475 72.7772 38.9481L73.1766 38.1491C74.7744 34.8735 76.6917 31.2783 78.8886 27.3635C81.0855 23.4487 83.0028 20.2929 84.6005 17.8162C86.5178 14.9401 88.3952 12.5033 90.3124 10.466C92.2297 8.54858 93.6677 7.39013 94.7062 7.15044Z" fill="#3C3C3B"/>
<path d="M117.993 23.4087C118.393 22.7696 118.752 22.2103 119.112 21.7709C119.471 21.2915 119.671 21.0918 119.751 21.0918C120.07 21.0918 120.35 21.2116 120.63 21.5312C120.909 21.8108 121.029 22.1704 121.069 22.5299C121.069 22.9693 120.71 24.687 119.991 27.723C119.871 28.1624 119.751 28.6417 119.631 29.161C119.511 29.6803 119.391 30.1597 119.312 30.5192C119.232 30.8787 119.152 31.1983 119.072 31.5578C118.992 31.8774 118.912 32.1171 118.912 32.2769C118.872 32.4367 118.872 32.5166 118.872 32.4766C119.391 31.9174 120.19 31.1184 121.269 30.0399C122.347 29.0012 123.266 28.0825 124.105 27.3235L125.303 26.205C125.822 25.8854 126.182 25.8455 126.342 26.0052C126.421 26.1251 126.461 26.2449 126.421 26.3248C126.382 26.4047 126.222 26.5645 125.982 26.8441C123.585 29.161 121.109 31.8774 118.593 34.9533C118.033 35.952 117.674 36.711 117.514 37.1504C117.194 38.2289 116.675 39.707 115.996 41.5046C114.638 45.0199 113.32 47.6164 112.002 49.3741C110.684 51.1317 109.326 52.0106 107.968 52.0905C107.209 52.1304 106.689 51.9706 106.37 51.651C106.05 51.3315 105.89 50.7722 105.851 49.9733C105.771 48.7749 106.33 47.217 107.488 45.2596C108.647 43.3022 110.324 41.1451 112.481 38.7483L115.157 35.8321L116.356 31.6777C117.155 28.9214 117.514 27.5232 117.474 27.4833C117.474 27.4833 117.354 27.6031 117.194 27.8428C117.035 28.0825 116.795 28.442 116.515 28.8814C116.236 29.3208 115.916 29.8002 115.597 30.3195C115.277 30.7989 114.878 31.3182 114.358 31.8375C113.839 32.3568 113.44 32.7562 113.16 32.9959C112.881 33.2356 112.641 33.4353 112.401 33.5951C112.082 33.8348 111.682 33.9546 111.163 33.9546C110.644 33.9546 110.244 33.8348 109.885 33.5951C109.326 33.1957 109.086 32.197 109.126 30.679C109.206 29.1211 109.565 27.1238 110.244 24.6471C110.644 23.1291 110.963 22.2503 111.163 22.0505C111.403 21.8508 111.762 21.8108 112.321 21.9307C112.841 22.0505 113.2 22.2902 113.32 22.6098C113.44 22.9293 113.2 24.1677 112.681 26.3648C112.162 28.5618 111.842 29.9999 111.762 30.719C111.682 31.3182 111.682 31.5978 111.762 31.5978C111.802 31.5978 111.882 31.5179 112.042 31.3981C112.441 31.0385 113.36 29.96 114.798 28.2023C116.076 26.3248 117.194 24.7669 117.993 23.4087ZM113.56 40.9853C113.64 40.7456 113.719 40.5059 113.759 40.3062C113.839 40.1064 113.879 39.9467 113.879 39.8268C113.919 39.707 113.919 39.6271 113.879 39.6271C113.799 39.6271 113.48 39.9467 112.921 40.6257C112.361 41.3048 111.762 42.0239 111.123 42.8628C110.484 43.7016 110.005 44.3408 109.685 44.8202C108.247 47.0172 107.528 48.655 107.528 49.6937C107.488 51.0119 108.167 50.932 109.485 49.454C110.045 48.8148 110.724 47.6564 111.562 45.9387C112.401 44.221 113.08 42.5432 113.56 40.9853Z" fill="#3C3C3B"/>
<path d="M126.861 21.2117C127.62 20.8921 128.379 20.8522 129.218 21.0519C130.016 21.2916 130.576 21.691 130.935 22.3302C131.135 22.7297 131.255 23.4487 131.255 24.4474C131.255 25.446 131.175 26.0852 130.935 26.3648C130.536 26.9241 130.216 26.8841 129.976 26.245C129.857 26.0053 129.777 25.6857 129.737 25.2862C129.617 24.4074 129.457 23.8482 129.258 23.5685C129.098 23.3688 128.978 23.249 128.898 23.249C128.818 23.249 128.658 23.3688 128.419 23.6085C127.82 24.1677 127.38 24.9267 127.101 25.9254C126.821 26.9241 126.781 27.8428 127.021 28.7217C127.18 29.3209 127.42 29.8002 127.74 30.1198C128.059 30.4793 128.818 31.1185 130.096 32.0372C130.815 32.5566 131.255 33.0359 131.454 33.4753C131.654 33.9147 131.654 34.4341 131.454 34.9534C131.255 35.5126 130.855 35.992 130.216 36.4713C129.577 36.9507 128.898 37.3102 128.099 37.5898C127.3 37.8295 126.501 37.9893 125.663 38.0692C124.824 38.1491 124.065 38.0293 123.466 37.7097C122.946 37.51 122.507 37.1904 122.187 36.751C121.828 36.3115 121.748 35.992 121.948 35.7922C122.108 35.5925 122.267 35.5126 122.427 35.5126C122.587 35.5126 122.787 35.6325 122.986 35.8322C123.186 36.0319 123.546 36.1518 124.065 36.1917C124.584 36.2317 125.103 36.1518 125.663 36.0319C126.222 35.8721 126.781 35.7123 127.34 35.4727C127.859 35.233 128.339 34.9933 128.698 34.6737C129.058 34.3542 129.218 34.0745 129.218 33.7949C129.218 33.715 129.098 33.5552 128.858 33.3555C128.618 33.1558 128.299 32.956 127.979 32.7563C127.021 32.237 126.342 31.7177 125.862 31.2783C125.383 30.7989 124.984 30.2396 124.624 29.5206C124.065 28.3621 123.865 27.1637 124.025 25.8855C124.185 24.6072 124.704 23.4487 125.583 22.45C125.942 21.7709 126.382 21.4114 126.861 21.2117Z" fill="#3C3C3B"/>
<path d="M140.402 7.74958C140.921 7.5099 141.48 7.54985 142.159 7.90937C142.838 8.26889 143.198 8.66836 143.278 9.22761C143.278 9.30751 143.278 9.42735 143.238 9.50724C143.198 9.58713 143.038 9.86676 142.838 10.3062C142.718 10.5858 142.599 10.8255 142.479 10.9853C141.52 12.8228 141.121 13.7815 141.201 13.8614C141.24 13.9413 141.88 13.8614 143.158 13.7416C145.474 13.462 147.072 13.3421 147.871 13.3821C148.31 13.422 148.63 13.5419 148.83 13.7416C149.029 13.9813 148.99 14.181 148.71 14.4207C148.55 14.5405 147.512 14.7802 145.634 15.1397C144.636 15.3395 143.717 15.4992 142.918 15.659L140.002 16.2183L139.203 18.2955C138.245 20.6923 137.446 23.3288 136.727 26.205C136.048 29.0811 135.648 31.5978 135.608 33.715C135.568 34.474 135.648 35.2729 135.768 36.0718C135.888 36.8708 136.128 37.5898 136.447 38.2289C136.767 38.8681 137.126 39.1877 137.486 39.1877C138.125 39.2276 138.884 38.6284 139.802 37.43C140.721 36.1917 141.999 34.1544 143.677 31.2782C144.755 29.4407 145.474 28.5618 145.874 28.5618C146.154 28.5618 146.313 28.6817 146.393 28.8415C146.473 29.0412 145.954 30.1996 144.835 32.3168C143.717 34.434 142.718 36.0718 141.84 37.3102C141.56 37.7096 141.28 38.0692 141.041 38.3887C140.801 38.7083 140.521 39.0279 140.242 39.3075C139.962 39.6271 139.683 39.8668 139.443 40.1064C139.203 40.3062 138.924 40.5059 138.644 40.7056C138.365 40.8654 138.085 40.9853 137.805 41.0652C137.526 41.1451 137.246 41.185 136.966 41.185C136.687 41.185 136.367 41.1051 136.088 40.9853C135.289 40.7056 134.61 40.1464 134.091 39.3075C133.571 38.5086 133.172 37.5099 132.972 36.3914C132.772 35.2729 132.613 34.0345 132.573 32.6763C132.533 31.3182 132.573 29.92 132.732 28.4819C132.892 27.0039 133.092 25.6058 133.332 24.2875C133.571 22.9293 133.851 21.651 134.17 20.4127C134.25 20.1331 134.29 19.8534 134.37 19.5738C134.45 19.2942 134.49 19.0545 134.53 18.8148C134.57 18.6151 134.61 18.4154 134.65 18.2156C134.69 18.0159 134.73 17.8561 134.77 17.6564C134.73 17.5765 133.691 17.8162 131.694 18.3355C130.096 18.7349 128.978 18.9746 128.339 19.0146C127.7 19.0545 127.26 18.9347 126.901 18.6151C126.741 18.4953 126.661 18.3754 126.621 18.2556C126.621 18.1357 126.661 18.0159 126.741 17.8561C126.941 17.5365 127.38 17.2569 128.099 17.0172C128.818 16.7775 130.056 16.418 131.774 15.9786C133.851 15.4593 135.049 15.1797 135.329 15.0998C135.608 15.0199 136.128 14.221 136.807 12.703C137.326 11.5445 137.805 10.6257 138.245 9.90671C138.684 9.22761 139.044 8.74825 139.363 8.46862C139.603 8.22894 139.962 7.94932 140.402 7.74958Z" fill="#3C3C3B"/>
<path d="M146.313 24.8469C146.553 24.4873 146.952 24.2876 147.472 24.2876C147.991 24.2876 148.47 24.4873 148.87 24.8868C149.269 25.2463 149.469 25.5259 149.469 25.6458C149.469 25.7656 149.189 26.6445 148.67 28.2423C147.991 30.3196 147.592 32.0373 147.512 33.4753C147.432 34.9134 147.631 35.8322 148.191 36.2716C148.87 36.8309 150.627 35.7124 153.423 32.8362C155.42 30.759 156.379 30 156.339 30.4394C156.299 30.6791 155.9 31.3582 155.141 32.4367C153.903 34.1944 152.824 35.4727 151.945 36.3116C151.067 37.1504 150.228 37.6698 149.429 37.9094C148.231 38.229 147.112 37.9494 146.154 37.0306C145.195 36.1118 144.596 34.8335 144.396 33.1558C144.276 32.1172 144.396 30.6791 144.835 28.8415C145.275 27.0439 145.754 25.6857 146.313 24.8469ZM149.788 15.5393C150.028 15.2596 150.268 15.0599 150.467 14.9401C150.667 14.8202 150.947 14.7803 151.266 14.7803C152.225 14.7803 152.904 15.0998 153.224 15.739C153.343 15.9387 153.303 16.1784 153.184 16.4181C153.064 16.6578 152.664 17.1771 152.105 17.8961C151.186 19.0146 150.587 19.8535 150.268 20.3329C150.108 20.6524 149.948 20.8522 149.788 20.9321C149.629 21.012 149.389 21.0919 149.109 21.0919C148.59 21.0919 148.231 20.972 148.071 20.7323C147.871 20.4927 147.831 20.0932 147.951 19.5339C148.071 18.9347 148.311 18.2157 148.67 17.4168C148.99 16.6578 149.389 16.0186 149.788 15.5393Z" fill="#3C3C3B"/>
<path d="M161.292 34.1145C161.013 33.8349 160.374 33.3555 160.214 33.2756C160.174 33.2756 160.174 33.2357 160.134 33.2357C159.535 33.1158 159.095 33.2357 158.736 33.3954C158.536 33.4753 158.376 33.5952 158.297 33.7949L157.937 34.474C157.657 35.2729 157.378 36.3515 157.138 37.7496C157.138 37.7896 157.138 37.8695 157.098 37.9494C156.819 39.5872 156.619 40.5459 156.499 40.8255C156.379 41.1052 156.1 41.2649 155.66 41.3049H155.62C155.061 41.3448 154.662 41.225 154.382 40.9054C154.182 40.7057 154.062 40.3861 154.062 39.9867C154.062 39.5872 154.102 38.5885 154.262 36.9507C154.901 28.7217 155.98 22.2902 157.578 17.5765C158.097 16.0186 158.856 13.7416 160.334 11.0253C161.612 8.7483 161.772 8.58852 161.971 8.34884C162.331 7.98932 162.61 7.74964 162.77 7.74964C162.97 7.70969 163.329 7.82953 163.849 8.06921C164.368 8.30889 164.648 8.62846 164.727 8.98798C164.807 9.34751 164.648 9.86681 164.328 10.506C163.809 11.5046 164.248 10.7057 163.409 12.6631C162.57 14.6205 161.931 16.2183 161.452 17.4966C161.053 18.6551 160.533 20.3728 159.854 22.6498C159.215 24.9267 158.896 26.245 158.896 26.5646C158.896 26.6444 159.055 26.5246 159.335 26.1651C159.495 25.9653 159.655 25.6857 159.854 25.4061C160.533 24.3675 161.332 23.4487 162.171 22.7297C163.01 21.9707 163.689 21.6112 164.208 21.6112C164.767 21.6112 165.167 21.691 165.406 21.8109C165.646 21.9307 165.886 22.2104 166.086 22.5699C166.565 23.4887 166.485 24.6072 165.846 25.9653C165.486 26.7243 164.927 27.6032 164.168 28.6018C163.409 29.6005 162.73 30.3595 162.131 30.8389L161.172 31.6378L161.292 34.1145ZM163.889 24.2876C164.048 23.9281 164.048 23.7283 163.849 23.7283C163.649 23.7283 163.25 24.1677 162.57 25.0865C161.891 26.0053 161.252 26.9241 160.693 27.9227C160.134 28.8815 159.854 29.4807 159.934 29.6804C160.014 29.8801 160.294 29.6404 160.853 28.9614C161.412 28.3222 162.011 27.4833 162.61 26.5646C163.25 25.5659 163.649 24.8468 163.889 24.2876Z" fill="#3C3C3B"/>
<path d="M159.575 32.1571C160.134 32.5166 160.374 32.996 160.773 33.5153C161.092 33.9147 161.372 34.2743 161.612 34.7137C162.131 35.7523 162.451 36.7909 163.17 37.7097C164.328 39.2276 166.485 40.3062 168.362 39.2676C168.881 38.988 168.442 38.189 167.883 38.4687C165.406 39.6271 164.408 36.5912 163.769 34.8335C163.449 33.9547 163.01 33.1158 162.331 32.4367C161.692 31.7576 160.813 31.5179 159.934 31.2383C159.415 31.0386 159.135 31.8375 159.575 32.1571Z" fill="#3C3C3B"/>
<path d="M57.7583 40.2264C57.6385 40.2264 57.5186 40.1864 57.3589 40.1864C56.7597 40.1065 55.841 39.9467 54.6826 39.5473C54.403 39.4274 54.0835 39.3475 53.8039 39.1878C53.724 39.1478 53.6841 39.1079 53.6042 39.1079C53.5243 39.0679 53.4444 39.028 53.3645 38.988C53.2846 38.9481 53.2047 38.9081 53.1248 38.8682C53.045 38.8282 52.9651 38.7883 52.8852 38.7084C52.2461 38.3089 51.567 37.7896 50.9679 37.1105C50.8081 36.9507 50.6883 36.751 50.5685 36.5513C50.4486 36.3515 50.3288 36.1518 50.209 35.9521C49.9693 35.5127 49.8095 35.0732 49.6897 34.5939C49.6498 34.474 49.6498 34.3542 49.6098 34.2344C49.5699 34.1145 49.5699 33.9947 49.5299 33.8748C49.49 33.755 49.49 33.6352 49.49 33.5153V33.3156V33.1558V32.996V32.8762C49.49 32.7963 49.45 32.6764 49.45 32.5965C49.4101 32.3968 49.3701 32.1971 49.3302 31.9973C49.2503 31.5979 49.1305 31.1984 48.9707 30.7989C48.8908 30.5992 48.8109 30.3995 48.7311 30.1997L48.6911 30.1198C48.6512 30.0799 48.6911 30.1598 48.6911 30.1198V30.0799L48.6512 30.04L48.5713 29.8802L48.4914 29.7204C48.4914 29.6804 48.4514 29.6804 48.4514 29.6405L48.4115 29.6005C48.3716 29.5206 48.3316 29.4408 48.2517 29.3609C48.2118 29.281 48.1319 29.2011 48.092 29.1212C48.0121 29.0413 47.9721 29.0013 47.8922 28.9214C47.8123 28.8416 47.7325 28.8016 47.6925 28.7217C47.373 28.482 47.0534 28.3222 46.654 28.2823C46.2945 28.2024 45.8551 28.2424 45.4557 28.3622C45.0562 28.482 44.6568 28.7217 44.2973 29.0013C43.4984 29.6005 42.7795 30.3995 42.0205 31.2384L41.9406 31.3182C41.9007 31.3582 41.8607 31.3981 41.8208 31.4381C41.7409 31.518 41.6211 31.5979 41.3814 31.7177C41.3015 31.7577 41.2616 31.7577 41.1817 31.7577C41.1018 31.7577 41.0219 31.7577 40.9021 31.7577C40.8222 31.7577 40.7024 31.7177 40.6225 31.6778C40.5426 31.6378 40.4627 31.5979 40.3828 31.5579C40.3429 31.518 40.3429 31.518 40.303 31.478C40.263 31.4381 40.263 31.4381 40.2231 31.3981C40.1831 31.3582 40.1432 31.3183 40.1032 31.2783C40.0633 31.2384 40.0633 31.1984 40.0233 31.1585L39.9834 31.0786C39.9435 30.9587 39.9035 30.8788 39.8636 30.759V30.6791L39.8236 30.5593C39.7837 30.4394 39.7437 30.2397 39.7038 30.1198C39.544 29.5206 39.4641 28.9214 39.3842 28.3222C39.3044 27.723 39.2245 27.1638 39.1446 26.6045L39.0647 26.2051L38.9449 25.7657C38.9049 25.6458 38.865 25.526 38.825 25.4061C38.7851 25.2863 38.7452 25.1665 38.6653 25.0466C38.4655 24.5673 38.146 24.2077 37.7466 23.968C37.3471 23.7284 36.8678 23.6884 36.3485 23.7683C36.1089 23.8083 35.8293 23.8882 35.5896 23.968C35.4698 24.008 35.3499 24.0879 35.2301 24.1278C35.1502 24.1678 35.1103 24.1678 35.0304 24.2077L34.8307 24.3276C34.3114 24.6072 33.7522 24.8868 33.193 25.1665C32.9134 25.2863 32.5938 25.4461 32.3142 25.5659C31.9947 25.6858 31.7151 25.8056 31.3156 25.8455C30.9561 25.9254 30.5967 25.9254 30.1972 25.8855C29.7978 25.8455 29.4383 25.6858 29.1187 25.526C28.7992 25.3262 28.4796 25.1265 28.24 24.8868C28.1601 24.8069 28.1201 24.767 28.0403 24.6871L27.9604 24.5673L27.8805 24.4874C27.8006 24.3675 27.6808 24.2477 27.5609 24.1278C27.1615 23.6085 26.802 23.0892 26.4825 22.6099C26.1629 22.1305 25.8434 21.6112 25.5238 21.1318C25.364 20.8922 25.2043 20.6525 25.0445 20.4527L24.9247 20.2929L24.8847 20.253C24.8847 20.2131 24.8847 20.253 24.8847 20.253V20.2131L24.8048 20.1332L24.7249 20.0533C24.685 20.0133 24.685 20.0133 24.6451 19.9734L24.5252 19.8535C24.3655 19.6937 24.2057 19.5739 24.0459 19.4541C23.8861 19.3742 23.7663 19.3342 23.6065 19.3342C23.4867 19.3342 23.3269 19.3342 23.1272 19.3742C22.9674 19.4141 22.7278 19.494 22.528 19.6139C21.6493 20.0932 20.7306 20.7324 19.8918 21.3715C19.4524 21.6911 19.053 22.0107 18.6136 22.3702C18.1742 22.6898 17.7748 23.0093 17.3753 23.3289C16.5764 23.9681 15.7776 24.6072 15.0186 25.2064C14.2597 25.8056 13.4608 26.4048 12.7019 26.9641C11.943 27.5233 11.1441 28.0027 10.3852 28.4421C10.3053 28.482 10.1855 28.5619 10.1056 28.6019C10.0257 28.6418 9.90587 28.7217 9.82598 28.7617C9.74609 28.8016 9.6662 28.8416 9.54637 28.8815C9.42654 28.9214 9.34665 28.9614 9.26677 29.0413C9.14694 29.0812 9.06705 29.1212 8.94722 29.1611C8.86733 29.2011 8.7475 29.241 8.66761 29.281C8.4679 29.3609 8.26818 29.4408 8.1084 29.5206C6.59055 30.0799 5.19252 30.3595 4.03416 30.4794C2.87579 30.5992 1.95709 30.5593 1.31799 30.5193C0.998441 30.5193 0.75878 30.4794 0.599005 30.4394C0.439231 30.4394 0.359344 30.3995 0.359344 30.3995C0.239513 30.3995 0.159626 30.3595 0.0397949 30.3196C0.279457 46.6977 13.6206 59.8802 30.0374 59.8802C42.9792 59.8802 54.0036 51.6511 58.2376 40.1864C58.1977 40.1864 58.1577 40.1864 58.1178 40.1864C57.998 40.2663 57.8781 40.2264 57.7583 40.2264Z" fill="#64C3D1"/>
<path d="M0.638896 27.3635H0.678839H0.718783C0.718783 27.3635 0.79867 27.3635 0.918501 27.4035C1.03833 27.4035 1.23805 27.4434 1.51766 27.4834C2.03692 27.5632 2.79585 27.6032 3.7545 27.5233C4.23382 27.4834 4.75309 27.4434 5.3123 27.3236C5.87151 27.2037 6.47066 27.0839 7.10976 26.8442C7.26954 26.8043 7.42931 26.7244 7.58908 26.6844C7.66897 26.6445 7.74886 26.6045 7.82875 26.6045C7.90863 26.5646 7.98852 26.5246 8.06841 26.5246C8.14829 26.4847 8.22818 26.4447 8.30807 26.4048C8.38796 26.3648 8.50779 26.3249 8.58767 26.285C8.66756 26.245 8.74745 26.2051 8.82734 26.1651C8.90722 26.1252 8.98711 26.0852 9.067 26.0453C9.74604 25.6858 10.465 25.2863 11.184 24.8069C12.6619 23.8482 14.1798 22.6498 15.9373 21.4514C16.3767 21.1718 16.7761 20.8522 17.2155 20.5326C17.6549 20.2131 18.0943 19.8935 18.5736 19.5739C19.4923 18.9348 20.4909 18.2956 21.6093 17.7763C21.9288 17.6565 22.2484 17.4967 22.6079 17.4168C22.9674 17.3369 23.4068 17.2969 23.8461 17.3768C24.2855 17.4567 24.6849 17.6165 25.0444 17.8562C25.4039 18.0959 25.6436 18.3356 25.8833 18.6152L26.083 18.8149C26.1229 18.8549 26.1229 18.8948 26.1629 18.8948L26.2427 18.9747L26.3226 19.0546L26.3626 19.1744L26.4025 19.2144L26.5224 19.4141C26.6821 19.6937 26.8419 19.9334 27.0017 20.213C27.3212 20.7324 27.6008 21.2517 27.8804 21.771C28.16 22.2903 28.4796 22.7696 28.7991 23.2091C29.1187 23.6884 29.4382 24.0479 29.7977 24.2876C30.1572 24.5273 30.5966 24.6471 31.0759 24.5672C31.3156 24.5672 31.5552 24.4874 31.8349 24.4075C32.1145 24.3276 32.3541 24.2077 32.6337 24.1278C33.153 23.9281 33.7122 23.6485 34.2714 23.3688L34.4711 23.2889C34.551 23.249 34.6309 23.2091 34.7108 23.2091C34.8706 23.1292 34.9904 23.0892 35.1901 23.0093C35.5097 22.8895 35.8292 22.8096 36.1887 22.7696L36.4284 22.7297C36.5083 22.7297 36.5881 22.7297 36.708 22.7297C36.7879 22.7297 36.8677 22.7297 36.9876 22.7297L37.2672 22.7696C37.3071 22.7696 37.3471 22.7696 37.387 22.7696L37.5068 22.8096L37.7864 22.8495C37.8663 22.8895 37.9462 22.9294 38.0661 22.9294C38.1459 22.9694 38.2258 23.0093 38.3057 23.0493C38.9848 23.3688 39.504 23.9281 39.8236 24.5273C39.9035 24.6871 39.9833 24.8069 40.0632 24.9667C40.1431 25.1265 40.223 25.2863 40.263 25.4461L40.4227 25.8855L40.5026 26.1252L40.5825 26.3648C40.7423 26.964 40.8621 27.5632 40.942 28.1225C41.0618 28.6418 41.1417 29.1611 41.2615 29.6804C41.8607 29.0013 42.5397 28.3222 43.2987 27.723C43.778 27.3635 44.3372 27.004 44.9763 26.8043C45.5755 26.6045 46.2545 26.5246 46.9335 26.6045C47.5726 26.6844 48.2117 26.964 48.731 27.3236C48.8508 27.4035 48.9707 27.5233 49.0905 27.6032C49.2103 27.723 49.3302 27.8029 49.41 27.9228C49.4899 28.0426 49.6098 28.1625 49.6896 28.2823C49.7695 28.4021 49.8894 28.522 49.9692 28.6818L50.0491 28.7617C50.0891 28.8016 50.0891 28.8415 50.0891 28.8415L50.169 29.0013L50.2489 29.1611L50.2888 29.2011L50.3287 29.281L50.3687 29.3609C50.4885 29.6005 50.6083 29.8402 50.6882 30.0799C50.888 30.5593 51.0477 31.0386 51.2075 31.518C51.2874 31.7577 51.3273 31.9973 51.3673 32.237C51.4072 32.3569 51.4072 32.4767 51.4472 32.5965L51.4871 32.7963L51.5271 32.9561V32.996V33.0359V33.1158L51.567 33.2357C51.567 33.3156 51.6069 33.4354 51.6069 33.5153C51.6469 33.5952 51.6469 33.6751 51.6868 33.755C51.7268 33.8349 51.7268 33.9148 51.7667 33.9947C51.8865 34.3142 52.0064 34.5939 52.1662 34.8735C52.246 34.9933 52.3259 35.1132 52.4058 35.233C52.4857 35.3529 52.6055 35.4727 52.6854 35.5526C52.8851 35.7523 53.0849 35.9121 53.3245 36.0719C53.5642 36.2317 53.8038 36.3515 54.0435 36.4714C54.0834 36.5113 54.1633 36.5113 54.2033 36.5513C54.2432 36.5912 54.3231 36.5912 54.3631 36.6312C54.403 36.6711 54.4829 36.6711 54.5228 36.7111C54.6027 36.751 54.6826 36.751 54.7225 36.7909C54.9622 36.8708 55.2019 36.9108 55.4016 36.9907C56.2803 37.1904 57.0393 37.2304 57.5585 37.2304C57.6784 37.2304 57.7982 37.2304 57.918 37.2304C57.9979 37.2304 58.1177 37.2304 58.1577 37.2304C58.3175 37.2304 58.3974 37.2304 58.3974 37.2304C58.637 37.2304 58.8367 37.2703 59.0365 37.3502C59.6356 35.0333 59.9152 32.5566 59.9152 30.0799C59.9951 13.4221 46.5341 0 29.9974 0C14.2996 0 1.39782 12.0639 0.119629 27.4035C0.279403 27.3635 0.479121 27.3635 0.638896 27.3635Z" fill="#89CACE"/>
</svg>
